<svg xmlns="http://www.w3.org/2000/svg" viewBox="0 0 128 128" width="128" height="128"><title>Brass band</title><desc>Grouped trumpet bells and a trombone represent a brass-band ensemble.</desc><!-- Adapted Noto components: Google Noto Emoji, Apache-2.0, revision8998f5dd683424a73e2314a8c1f1e359c19e8742. See bundled NOTO-LICENSE/NOTICE. --><g transform="translate(-11 10) scale(0.67) rotate(-32 64 64)">
<g>

		<rect x="48.84" y="38.92" transform="matrix(0.7282 -0.6853 0.6853 0.7282 -5.5855 70.8106)" style="fill:#FFCA28;" width="75.3" height="7.05"/>
	<path style="fill:none;stroke:#FFCA28;stroke-width:7.1779;stroke-miterlimit:10;" d="M23.27,101.89l69.61-65.51
		c4.62-4.35,12.15-3.85,16.82,1.11c0,0,8.93,8.54,0.09,16.85L76.64,85.54c-4.3,4.05-10.92,2.73-15.2-0.86
		c-4.4-3.69-7.14-12,0.34-19.03"/>
	<path style="fill:#FFCA28;" d="M58.72,63.62C35.7,80.95,12.4,71.97,10.84,71.46c-4.08-1.34-5.02,0.14-5.54,0.68
		c-3.9,3.96,1.2,16.51,13.01,29.99s25.7,22.65,29.75,18.84c2.82-2.66,2.02-5.17,1.76-9.42c-0.35-5.63-4.85-25.24,13.78-42.76
		L58.72,63.62z"/>

		<ellipse transform="matrix(0.7481 -0.6635 0.6635 0.7481 -58.8272 41.9642)" style="fill:#DD7341;" cx="25.86" cy="98.47" rx="4.59" ry="26.6"/>
	<path style="fill:#FFF9C4;" d="M53.47,69.23c-8.4,5.77-20.48,8.83-30.87,7.85c-0.95-0.09-2.03-0.16-2.74,0.48
		c-1.02,0.92,5.94,7.92,10.54,7.04c10.79-2.05,19.24-9.17,23.62-12.93c0.48-0.41,1.57-1.52,2.78-2.78c0.67-0.7-0.23-1.78-1.04-1.23
		C55.04,68.16,54.27,68.69,53.47,69.23z"/>
	<path style="fill:#FFCA28;" d="M94.16,82.97c-0.6,0.98-1.66,2.22-3.47,3.17c-0.87,0.46-1.95,0.28-2.62-0.43l-30.58-32.5l5.77-5.43
		l30.63,32.55C94.56,81.05,94.67,82.13,94.16,82.97z"/>

		<ellipse transform="matrix(0.7282 -0.6853 0.6853 0.7282 -16.5855 51.644)" style="fill:#9E740B;" cx="56.82" cy="46.73" rx="3.52" ry="1.85"/>
	<path style="fill:#9E740B;" d="M60.2,48.39l-1.34-1.43l-1.92,1.81l1.34,1.43c-0.97,1.21-1.39,2.37-0.93,2.86
		c0.58,0.62,2.34-0.1,3.94-1.6c1.59-1.5,2.41-3.22,1.83-3.83C62.65,47.15,61.46,47.5,60.2,48.39z"/>
	<path style="fill:#FFCA28;" d="M103.5,74.41c-0.6,0.98-1.66,2.22-3.47,3.17c-0.87,0.46-1.95,0.28-2.62-0.43l-30.58-32.5l5.77-5.43
		l30.63,32.55C103.9,72.49,104.01,73.57,103.5,74.41z"/>

		<ellipse transform="matrix(0.7282 -0.6853 0.6853 0.7282 -8.1804 55.7183)" style="fill:#9E740B;" cx="66.16" cy="38.17" rx="3.52" ry="1.85"/>
	<path style="fill:#9E740B;" d="M69.54,39.83l-1.34-1.43l-1.92,1.81l1.34,1.43c-0.97,1.21-1.39,2.37-0.93,2.86
		c0.58,0.62,2.34-0.1,3.94-1.6c1.59-1.5,2.41-3.22,1.83-3.83C71.99,38.59,70.8,38.94,69.54,39.83z"/>
	<path style="fill:#FFCA28;" d="M112.42,65.66c-0.6,0.98-1.66,2.22-3.47,3.17c-0.87,0.46-1.95,0.28-2.62-0.43L75.74,35.9l5.77-5.43
		l30.63,32.55C112.82,63.74,112.93,64.82,112.42,65.66z"/>

		<ellipse transform="matrix(0.7282 -0.6853 0.6853 0.7282 -1.3131 62.7683)" style="fill:#9E740B;" cx="78.48" cy="33.04" rx="3.96" ry="1.54"/>

		<ellipse transform="matrix(0.7282 -0.6853 0.6853 0.7282 0.2404 59.4527)" style="fill:#9E740B;" cx="75.08" cy="29.42" rx="3.52" ry="1.85"/>

		<rect x="76" y="30.1" transform="matrix(0.7282 -0.6853 0.6853 0.7282 -0.781 61.6327)" style="fill:#9E740B;" width="2.64" height="3.4"/>
	<path style="fill:#616161;" d="M120.31,9.7c-4.08-3.97-7.05-4.19-8.58-2.62c-0.67,0.69-0.8,1.78-0.49,3.04
		c0.22,0.88,0.2,1.85-0.43,2.5l-1.62,1.67c-1.4,1.44-0.79,2.79-0.79,2.79s1.37,0.53,2.93,1.85c1.36,1.52,2.03,3.03,2.03,3.03
		s1.37,0.57,2.77-0.87l1.62-1.67c0.63-0.65,1.49-0.57,2.37-0.38c1.27,0.28,2.36,0.11,3.03-0.58C124.68,16.9,124.39,13.67,120.31,9.7
		z"/>
</g>
</g><g transform="translate(40 0) scale(0.7) rotate(-22 64 64)">
<g>

		<rect x="48.84" y="38.92" transform="matrix(0.7282 -0.6853 0.6853 0.7282 -5.5855 70.8106)" style="fill:#FFCA28;" width="75.3" height="7.05"/>
	<path style="fill:none;stroke:#FFCA28;stroke-width:7.1779;stroke-miterlimit:10;" d="M23.27,101.89l69.61-65.51
		c4.62-4.35,12.15-3.85,16.82,1.11c0,0,8.93,8.54,0.09,16.85L76.64,85.54c-4.3,4.05-10.92,2.73-15.2-0.86
		c-4.4-3.69-7.14-12,0.34-19.03"/>
	<path style="fill:#FFCA28;" d="M58.72,63.62C35.7,80.95,12.4,71.97,10.84,71.46c-4.08-1.34-5.02,0.14-5.54,0.68
		c-3.9,3.96,1.2,16.51,13.01,29.99s25.7,22.65,29.75,18.84c2.82-2.66,2.02-5.17,1.76-9.42c-0.35-5.63-4.85-25.24,13.78-42.76
		L58.72,63.62z"/>

		<ellipse transform="matrix(0.7481 -0.6635 0.6635 0.7481 -58.8272 41.9642)" style="fill:#DD7341;" cx="25.86" cy="98.47" rx="4.59" ry="26.6"/>
	<path style="fill:#FFF9C4;" d="M53.47,69.23c-8.4,5.77-20.48,8.83-30.87,7.85c-0.95-0.09-2.03-0.16-2.74,0.48
		c-1.02,0.92,5.94,7.92,10.54,7.04c10.79-2.05,19.24-9.17,23.62-12.93c0.48-0.41,1.57-1.52,2.78-2.78c0.67-0.7-0.23-1.78-1.04-1.23
		C55.04,68.16,54.27,68.69,53.47,69.23z"/>
	<path style="fill:#FFCA28;" d="M94.16,82.97c-0.6,0.98-1.66,2.22-3.47,3.17c-0.87,0.46-1.95,0.28-2.62-0.43l-30.58-32.5l5.77-5.43
		l30.63,32.55C94.56,81.05,94.67,82.13,94.16,82.97z"/>

		<ellipse transform="matrix(0.7282 -0.6853 0.6853 0.7282 -16.5855 51.644)" style="fill:#9E740B;" cx="56.82" cy="46.73" rx="3.52" ry="1.85"/>
	<path style="fill:#9E740B;" d="M60.2,48.39l-1.34-1.43l-1.92,1.81l1.34,1.43c-0.97,1.21-1.39,2.37-0.93,2.86
		c0.58,0.62,2.34-0.1,3.94-1.6c1.59-1.5,2.41-3.22,1.83-3.83C62.65,47.15,61.46,47.5,60.2,48.39z"/>
	<path style="fill:#FFCA28;" d="M103.5,74.41c-0.6,0.98-1.66,2.22-3.47,3.17c-0.87,0.46-1.95,0.28-2.62-0.43l-30.58-32.5l5.77-5.43
		l30.63,32.55C103.9,72.49,104.01,73.57,103.5,74.41z"/>

		<ellipse transform="matrix(0.7282 -0.6853 0.6853 0.7282 -8.1804 55.7183)" style="fill:#9E740B;" cx="66.16" cy="38.17" rx="3.52" ry="1.85"/>
	<path style="fill:#9E740B;" d="M69.54,39.83l-1.34-1.43l-1.92,1.81l1.34,1.43c-0.97,1.21-1.39,2.37-0.93,2.86
		c0.58,0.62,2.34-0.1,3.94-1.6c1.59-1.5,2.41-3.22,1.83-3.83C71.99,38.59,70.8,38.94,69.54,39.83z"/>
	<path style="fill:#FFCA28;" d="M112.42,65.66c-0.6,0.98-1.66,2.22-3.47,3.17c-0.87,0.46-1.95,0.28-2.62-0.43L75.74,35.9l5.77-5.43
		l30.63,32.55C112.82,63.74,112.93,64.82,112.42,65.66z"/>

		<ellipse transform="matrix(0.7282 -0.6853 0.6853 0.7282 -1.3131 62.7683)" style="fill:#9E740B;" cx="78.48" cy="33.04" rx="3.96" ry="1.54"/>

		<ellipse transform="matrix(0.7282 -0.6853 0.6853 0.7282 0.2404 59.4527)" style="fill:#9E740B;" cx="75.08" cy="29.42" rx="3.52" ry="1.85"/>

		<rect x="76" y="30.1" transform="matrix(0.7282 -0.6853 0.6853 0.7282 -0.781 61.6327)" style="fill:#9E740B;" width="2.64" height="3.4"/>
	<path style="fill:#616161;" d="M120.31,9.7c-4.08-3.97-7.05-4.19-8.58-2.62c-0.67,0.69-0.8,1.78-0.49,3.04
		c0.22,0.88,0.2,1.85-0.43,2.5l-1.62,1.67c-1.4,1.44-0.79,2.79-0.79,2.79s1.37,0.53,2.93,1.85c1.36,1.52,2.03,3.03,2.03,3.03
		s1.37,0.57,2.77-0.87l1.62-1.67c0.63-0.65,1.49-0.57,2.37-0.38c1.27,0.28,2.36,0.11,3.03-0.58C124.68,16.9,124.39,13.67,120.31,9.7
		z"/>
</g>
</g><g transform="translate(26 45) scale(0.69) rotate(12 64 64)">

<g transform="translate(0 17) rotate(42 64 45)">
<!-- Continuous air path: mouthpiece, lower slide, slide bow, upper slide, rear tuning bow, bell stem. -->
<path d="M31 60h80c8 0 8-12 0-12H19C4 48 4 28 19 28h34" fill="none" stroke="#B87918" stroke-width="6" stroke-linecap="round" stroke-linejoin="round"/>
<path d="M31 59h80c6 0 6-10 0-10H19C6 49 6 28 19 28h34" fill="none" stroke="#FBC02D" stroke-width="3.8" stroke-linecap="round" stroke-linejoin="round"/>
<path d="M33 58h76M112 48H19C9 48 7 35 13 30M20 27h31" fill="none" stroke="#FFE082" stroke-width="1.6" stroke-linecap="round"/>
<!-- The tuning-bow return is directly continuous with the upper slide. -->
<path d="M33 48v12M43 48v12" fill="none" stroke="#CC921E" stroke-width="3.3"/>
<path d="M32.5 49v9M42.5 49v9" fill="none" stroke="#FFE082" stroke-width="1.3"/>
<!-- A tapered bell grows from the upper tube above the closely spaced slide. -->
<path fill="#FBC02D" d="M47 25c14 0 22-4 31-13v32c-9-9-17-13-31-13z"/>
<path fill="#FFE082" d="M47 25c14 0 22-4 31-13v7c-11 7-18 8-31 9z"/>
<path fill="#D9911C" d="M47 30c14 0 22 5 31 14v-7c-9-5-19-8-31-8z"/>
<ellipse cx="79" cy="28" rx="7" ry="17" fill="#FFCA28"/>
<ellipse cx="80" cy="28" rx="4.6" ry="13.7" fill="#935124"/>
<path d="M81 15c2.4 2.4 3.6 7.5 3.6 13s-1.2 11-3.6 13c-1.7-8-1.7-18 0-26z" fill="#BD7725"/>
<!-- Cup mouthpiece on the open end of the lower slide. -->
<path d="M23 56h4l5 2h3v4h-3l-5 2h-4z" fill="#B0BEC5"/>
<path d="M23 56h3v8h-3z" fill="#ECEFF1"/>
<path d="M27 57.5l5 2h3v1.2h-3l-5-1.4z" fill="#ECEFF1"/>
</g>
</g></svg>