<svg xmlns="http://www.w3.org/2000/svg" width="128" height="128" viewBox="0 0 128 128"><title>Concert Film</title><rect x="8" y="19" width="112" height="76" rx="8" fill="#627F90"/><rect x="16" y="27" width="96" height="57" rx="3" fill="#D8E2D8"/><path d="M16 27h17q-2 21-17 33Zm96 0H95q2 21 17 33Z" fill="#B78296"/><path d="M59 91h10v16H59Z" fill="#627F90"/><rect x="39" y="106" width="50" height="7" rx="3" fill="#8EA7AA"/><path d="M49 64V42l31-6v23" fill="none" stroke="#758F90" stroke-width="6" stroke-linejoin="round"/><path d="M49 46l31-6v8l-31 6Z" fill="#758F90"/><ellipse cx="42" cy="66" rx="10" ry="7" fill="#758F90"/><ellipse cx="73" cy="61" rx="10" ry="7" fill="#758F90"/><path d="m91 79 22 12-22 13Z" fill="#EAC883"/><rect x="18" y="88" width="5" height="3" rx="1" fill="#AAC2BC"/></svg>
