<svg xmlns="http://www.w3.org/2000/svg" width="128" height="128" viewBox="0 0 128 128"><title>Live Audio Documentary</title><path fill="#92759F" d="M10 18h108v86H10Z"/><path fill="#B995B9" d="M10 18h22v29q0 20-22 24Zm86 0h22v53q-22-4-22-24Z"/><path fill="#624F7E" d="M10 92h108v17H10Z"/><rect x="17" y="106" width="94" height="10" rx="3" fill="#817094"/><rect x="42" y="24" width="46" height="59" rx="4" fill="#F3E7D2"/><path d="M51 36h28M51 70h28" stroke="#B7AA92" stroke-width="3" stroke-linecap="round"/><path d="M51 49v7m6-13v19m6-16v13m6-19v24m6-16v10" fill="none" stroke="#5A9E9B" stroke-width="3.5" stroke-linecap="round" stroke-linejoin="round"/><path d="M31 92V72" stroke="#B3C5C9" stroke-width="4"/><path d="M24 64v3a7 7 0 0 0 14 0v-3" fill="none" stroke="#B3C5C9" stroke-width="3"/><rect x="27" y="46" width="8" height="23" rx="4" fill="#CED9D3"/><path d="M24 95h14" stroke="#A1B3BE" stroke-width="5" stroke-linecap="round"/></svg>
