<svg xmlns="http://www.w3.org/2000/svg" viewBox="0 0 128 128" width="128" height="128"><title>Indian sitar</title><desc>A fretted Indian sitar with a large gourd body, small upper resonator, main tuning pegs and a row of sympathetic-string pegs.</desc>
<g transform="rotate(26 64 64)">
<ellipse cx="76" cy="29" rx="12" ry="13" fill="#754D3D"/><path d="M76 17C86 17 91 31 83 39C88 29 80 23 72 23Z" fill="#513B32"/>
<path d="M55 80C48 83 34 89 34 103C34 117 47 123 63 123C81 123 94 113 91 99C89 90 76 83 71 80Z" fill="#935F43"/>
<path d="M55 80C48 83 33 89 33 101C33 114 46 121 62 121C79 121 91 111 89 99C87 89 76 83 71 80Z" fill="#BD824E"/>
<path d="M54 83C44 88 37 93 37 102C37 112 49 117 59 117C47 108 46 97 54 83Z" fill="#DEAA66"/>
<path d="M55 82L55 10Q63 6 71 10V83" fill="#D4B17E"/><path d="M58 11H68V82H58Z" fill="#674737"/>
<path d="M55 13H49M55 22H49M55 32H49M71 12H76M71 21H76" stroke="#654737" stroke-width="2.5"/>
<g fill="#684C40"><ellipse cx="47" cy="13" rx="3.5" ry="3"/><ellipse cx="47" cy="22" rx="3.5" ry="3"/><ellipse cx="47" cy="32" rx="3.5" ry="3"/><ellipse cx="78" cy="12" rx="3" ry="2.7"/><ellipse cx="78" cy="21" rx="3" ry="2.7"/></g><path d="M71 43H78" stroke="#684C40" stroke-width="1.8"/><ellipse cx="79" cy="43" rx="2.2" ry="1.7" fill="#684C40"/><path d="M71 47H78" stroke="#684C40" stroke-width="1.8"/><ellipse cx="79" cy="47" rx="2.2" ry="1.7" fill="#684C40"/><path d="M71 51H78" stroke="#684C40" stroke-width="1.8"/><ellipse cx="79" cy="51" rx="2.2" ry="1.7" fill="#684C40"/><path d="M71 55H78" stroke="#684C40" stroke-width="1.8"/><ellipse cx="79" cy="55" rx="2.2" ry="1.7" fill="#684C40"/><path d="M71 59H78" stroke="#684C40" stroke-width="1.8"/><ellipse cx="79" cy="59" rx="2.2" ry="1.7" fill="#684C40"/><path d="M71 63H78" stroke="#684C40" stroke-width="1.8"/><ellipse cx="79" cy="63" rx="2.2" ry="1.7" fill="#684C40"/><path d="M71 67H78" stroke="#684C40" stroke-width="1.8"/><ellipse cx="79" cy="67" rx="2.2" ry="1.7" fill="#684C40"/><path d="M71 71H78" stroke="#684C40" stroke-width="1.8"/><ellipse cx="79" cy="71" rx="2.2" ry="1.7" fill="#684C40"/><path d="M71 75H78" stroke="#684C40" stroke-width="1.8"/><ellipse cx="79" cy="75" rx="2.2" ry="1.7" fill="#684C40"/><path d="M56 31Q63 28 70 31" fill="none" stroke="#E4D5B8" stroke-width="1.8"/><path d="M56 37Q63 34 70 37" fill="none" stroke="#E4D5B8" stroke-width="1.8"/><path d="M56 43Q63 40 70 43" fill="none" stroke="#E4D5B8" stroke-width="1.8"/><path d="M56 49Q63 46 70 49" fill="none" stroke="#E4D5B8" stroke-width="1.8"/><path d="M56 55Q63 52 70 55" fill="none" stroke="#E4D5B8" stroke-width="1.8"/><path d="M56 61Q63 58 70 61" fill="none" stroke="#E4D5B8" stroke-width="1.8"/><path d="M56 66Q63 63 70 66" fill="none" stroke="#E4D5B8" stroke-width="1.8"/><path d="M56 71Q63 68 70 71" fill="none" stroke="#E4D5B8" stroke-width="1.8"/><path d="M56 76Q63 73 70 76" fill="none" stroke="#E4D5B8" stroke-width="1.8"/><path d="M56 81Q63 78 70 81" fill="none" stroke="#E4D5B8" stroke-width="1.8"/>
<path d="M55 39H49M55 46H49" stroke="#684C40" stroke-width="2"/><ellipse cx="47" cy="39" rx="3" ry="2.5" fill="#684C40"/><ellipse cx="47" cy="46" rx="3" ry="2.5" fill="#684C40"/>
<path d="M51 102H73V108H51ZM69 96H78V99H69Z" fill="#F2DFB9"/>
<path d="M58 28L58 116M60 28L60 116M62 28L62 116M64 28L64 116M66 28L66 116M68 28L68 116M70 28L70 116M58 28L57 13M60 28L57 22M62 28L57 32M64 28L69 12M66 28L69 21M68 39L57 39M70 46L57 46" stroke="#F5DFB6" stroke-width=".55" fill="none"/>
<path d="M53 116Q64 120 73 115" stroke="#E7C68C" stroke-width="3" fill="none"/>
</g>
</svg>
