<svg xmlns="http://www.w3.org/2000/svg" viewBox="0 0 128 128" width="128" height="128"><title>String quartet</title><desc>Four separated bowed-string instruments: two violins, a larger viola, and cello with endpin.</desc><g transform="translate(2 26) scale(0.69)"><path d="M18 28C4 24 1 37 10 43l-2 4c7 5 7 11 0 16C-5 82 1 100 19 100s25-18 12-37c-7-5-7-11 0-16l-2-4c9-6 6-19-8-15z" fill="#A95531"/><path d="M16 26C3 23 0 35 9 41l-2 4c7 5 7 11 0 16C-6 80 0 98 18 98s25-18 12-37c-7-5-7-11 0-16l-2-4c9-6 6-19-8-15z" fill="#EF8D48"/><path d="M6 72c-5 13 0 21 7 23-6-7-7-14-7-23z" fill="#FFBA6A"/><path d="M14 5h8l1 55H13z" fill="#37474F"/><path d="M12 3c0-6 13-5 13 1l-5 7h-5z" fill="#B76639"/><path d="M9 9h19v4H9z" fill="#37474F"/><path d="M14 80h10l-4 14h-3z" fill="#37474F"/><path d="M12 72h14v5H12z" fill="#FFE0A5"/><path d="M16 13v65m4-65v65" stroke="#E9D8CC" stroke-width="1.4"/><path d="M9 61c-5 6 2 9-3 16m22-16c5 6-2 9 3 16" fill="none" stroke="#734129" stroke-width="2.4"/></g><g transform="translate(30 26) scale(0.69)"><path d="M18 28C4 24 1 37 10 43l-2 4c7 5 7 11 0 16C-5 82 1 100 19 100s25-18 12-37c-7-5-7-11 0-16l-2-4c9-6 6-19-8-15z" fill="#A95531"/><path d="M16 26C3 23 0 35 9 41l-2 4c7 5 7 11 0 16C-6 80 0 98 18 98s25-18 12-37c-7-5-7-11 0-16l-2-4c9-6 6-19-8-15z" fill="#EF8D48"/><path d="M6 72c-5 13 0 21 7 23-6-7-7-14-7-23z" fill="#FFBA6A"/><path d="M14 5h8l1 55H13z" fill="#37474F"/><path d="M12 3c0-6 13-5 13 1l-5 7h-5z" fill="#B76639"/><path d="M9 9h19v4H9z" fill="#37474F"/><path d="M14 80h10l-4 14h-3z" fill="#37474F"/><path d="M12 72h14v5H12z" fill="#FFE0A5"/><path d="M16 13v65m4-65v65" stroke="#E9D8CC" stroke-width="1.4"/><path d="M9 61c-5 6 2 9-3 16m22-16c5 6-2 9 3 16" fill="none" stroke="#734129" stroke-width="2.4"/></g><g transform="translate(58 18) scale(0.76)"><path d="M18 28C4 24 1 37 10 43l-2 4c7 5 7 11 0 16C-5 82 1 100 19 100s25-18 12-37c-7-5-7-11 0-16l-2-4c9-6 6-19-8-15z" fill="#A95531"/><path d="M16 26C3 23 0 35 9 41l-2 4c7 5 7 11 0 16C-6 80 0 98 18 98s25-18 12-37c-7-5-7-11 0-16l-2-4c9-6 6-19-8-15z" fill="#DF803D"/><path d="M6 72c-5 13 0 21 7 23-6-7-7-14-7-23z" fill="#FFBA6A"/><path d="M14 5h8l1 55H13z" fill="#37474F"/><path d="M12 3c0-6 13-5 13 1l-5 7h-5z" fill="#B76639"/><path d="M9 9h19v4H9z" fill="#37474F"/><path d="M14 80h10l-4 14h-3z" fill="#37474F"/><path d="M12 72h14v5H12z" fill="#FFE0A5"/><path d="M16 13v65m4-65v65" stroke="#E9D8CC" stroke-width="1.4"/><path d="M9 61c-5 6 2 9-3 16m22-16c5 6-2 9 3 16" fill="none" stroke="#734129" stroke-width="2.4"/></g><g transform="translate(87 5) scale(0.9)"><path d="M18 28C4 24 1 37 10 43l-2 4c7 5 7 11 0 16C-5 82 1 100 19 100s25-18 12-37c-7-5-7-11 0-16l-2-4c9-6 6-19-8-15z" fill="#A95531"/><path d="M16 26C3 23 0 35 9 41l-2 4c7 5 7 11 0 16C-6 80 0 98 18 98s25-18 12-37c-7-5-7-11 0-16l-2-4c9-6 6-19-8-15z" fill="#CE7237"/><path d="M6 72c-5 13 0 21 7 23-6-7-7-14-7-23z" fill="#FFBA6A"/><path d="M14 5h8l1 55H13z" fill="#37474F"/><path d="M12 3c0-6 13-5 13 1l-5 7h-5z" fill="#B76639"/><path d="M9 9h19v4H9z" fill="#37474F"/><path d="M14 80h10l-4 14h-3z" fill="#37474F"/><path d="M12 72h14v5H12z" fill="#FFE0A5"/><path d="M16 13v65m4-65v65" stroke="#E9D8CC" stroke-width="1.4"/><path d="M9 61c-5 6 2 9-3 16m22-16c5 6-2 9 3 16" fill="none" stroke="#734129" stroke-width="2.4"/><path d="M17 99h3v17h-3z" fill="#78909C"/></g></svg>