<svg xmlns="http://www.w3.org/2000/svg" width="128" height="128" viewBox="0 0 128 128"><title>Typewriter</title><path fill="#8DB6AD" stroke="#8DB6AD" stroke-width=".15" stroke-linejoin="round" d="M109 70L107.5 70L107.5 72ZM34 88L36.5 88L38.5 89L38 91L36.5 92L36.5 93.5L41.5 94L41.5 93L39.5 92L39 87L37 86L37.5 84L40.5 83L40.5 82L38.5 81L38.5 78.5L39 78.5L37.5 78L37 80L35.5 80.5L36 84.5L36 85L34 86ZM41.5 89L45 89.5L45.5 90L45.5 92L43.5 93L43.5 94.5L49 95.5L49 94L47 93L46.5 88.5L44.5 87.5L45 85L48 84.5L48 83L46 82L46 80L46.5 79.5L44.5 79.5L44.5 81L42.5 82L43.5 85.5L43 86.5L41.5 87ZM51 94L51 96L56.5 96.5L56.5 95.5L54.5 94.5L54 89.5L52 88.5L52 86.5L55.5 85.5L55.5 84.5L53.5 83.5L53.5 81L54 81L52 80.5L52 82.5L50 83L50 85L50.5 85.5L50.5 87.5L49 88.5L49 90.5L51 90L53 91L53 93.5ZM56 91.5L60 92L60.5 92.5L60.5 94.5L58.5 95.5L58.5 97L63.5 98L63.5 96.5L62 95.5L61.5 90.5L59.5 89.5L59.5 87.5L62.5 86.5L62.5 85.5L60.5 84.5L61 82L61.5 82L59.5 81.5L59.5 83.5L57.5 84L58 88L58 89L56 89.5ZM63.5 92.5L67 93L68 93.5L67.5 96L66 96.5L66 98L71 99L71 97.5L69 96.5L69 92L67 91L67 88.5L70 88L70 86.5L68 85.5L68.5 83.5L69 83L67 83L66.5 84.5L65 85.5L65.5 89.5L65.5 90L63.5 90.5ZM89 88L87 89L87 90.5L87.5 91L87.5 93.5L85.5 94L85.5 96.5L84.5 97L83.5 96.5L83.5 94L81.5 93L81.5 91L85 90L85 89L83 88L83 85.5L83.5 85.5L81.5 85L81.5 87L79.5 87.5L80.5 91.5L80 92.5L78.5 93L78.5 95L82 95.5L82.5 96L82.5 97.5L82.5 98L80.5 99L80.5 101.5L79 101.5L78.5 99L76.5 98L76 93L74 92L74.5 90L77.5 89L77.5 88L75.5 87L75.5 84.5L76 84.5L74 84L74 86L72 86.5L72 88.5L73 89L72.5 91L71 92L71 94L73.5 93.5L75.5 94.5L75 97L73.5 97.5L74 102.5L72.5 104L28 97L28 94L28.5 93.5L27 93L27 90.5L25 89.5L25 87.5L27.5 86.5L30.5 87L31 87.5L31 89L31 90L29 90.5L29 93L29.5 92.5L34 93L34 92L32 91L32 86L30 85L30 83L33 82L33 80.5L31 79.5L31.5 77.5L32 77L29 77L15 99L83.5 109.5L104.5 77L103.5 77L100.5 82L95.5 87.5L89 86.5Z"/><path fill="#83A9A1" stroke="#83A9A1" stroke-width=".15" stroke-linejoin="round" d="M11 106L87.5 118L83.5 109.5L15 99Z"/><path fill="#6E8D87" stroke="#6E8D87" stroke-width=".15" stroke-linejoin="round" d="M83.5 109.5L87.5 118L112.5 89.5L109 70Z"/><path fill="#587683" stroke="#587683" stroke-width=".15" stroke-linejoin="round" d="M21 107.5L22 108L20.5 107.5ZM80.5 117L80.5 117L78.5 116.5L79 117Z"/><path fill="#526E7A" stroke="#526E7A" stroke-width=".15" stroke-linejoin="round" d="M22 107.5L23.5 108L24.5 108ZM80.5 117L82 117.5L83 117.5Z"/><path fill="#69978E" stroke="#69978E" stroke-width=".15" stroke-linejoin="round" d="M32 77L35.5 76.5L36.5 77L37.5 78L39 78.5L42.5 78L44 78.5L44.5 79.5L50 79L51.5 79.5L52 80.5L54 81L57.5 80.5L59 80.5L59.5 81.5L61.5 82L65 81.5L66 82L67 83L72.5 82.5L73.5 83L74 84L76 84.5L79.5 84L81 84L81.5 85L87 85L88.5 85.5L89 86.5L95.5 87.5L95.5 77.5L28.5 67L28.5 76.5Z"/><path fill="#587E77" stroke="#587E77" stroke-width=".15" stroke-linejoin="round" d="M103.5 77L103.5 69L95.5 77.5L95.5 87.5L100.5 82Z"/><path fill="#71A399" stroke="#71A399" stroke-width=".15" stroke-linejoin="round" d="M103.5 69L36 58L28.5 67L95.5 77.5Z"/><path fill="#647A81" stroke="#647A81" stroke-width=".15" stroke-linejoin="round" d="M35.5 82.5L35.5 80.5L35 81L35 82.5ZM42.5 83.5L42.5 82L42 82L42 83.5ZM33.5 88L34 88L34 86L33.5 86ZM41 89L41.5 89L41.5 87L41 87ZM48.5 90.5L49 90.5L49 88.5L48.5 88.5ZM28.5 93.5L29 93L29 90.5L28.5 90.5ZM36 93.5L36.5 93.5L36.5 92L36 92ZM43.5 94.5L43.5 94.5L43.5 93L43.5 93ZM50 83L49.5 83L49.5 84.5L50 85ZM57.5 84L57 84.5L57 86L57.5 86ZM64.5 87L65 87L65 85.5L64.5 85.5ZM56 89.5L55.5 89.5L55.5 91.5L56 91.5ZM63 90.5L63 92.5L63.5 92.5L63.5 90.5ZM50.5 95.5L51 96L51 94L50.5 94ZM58 97L58.5 97L58.5 95.5L58 95.5ZM65.5 96.5L65.5 98L66 98L66 96.5ZM72 88L72 88.5L72 86.5L72 86.5ZM79.5 87.5L79 88L79 89.5L79.5 89.5ZM87 90.5L87 89L86.5 89L86.5 90.5ZM71 92L70.5 92L70.5 94L71 94ZM78.5 93L78 93L78 95L78.5 95ZM85 94.5L85 97L85.5 96.5L85.5 94ZM73 98L73 99L73.5 99.5L73.5 97.5ZM80 101.5L80.5 101L80.5 99L80 99Z"/><path fill="#819DA6" stroke="#819DA6" stroke-width=".15" stroke-linejoin="round" d="M33.5 81L33 82L33.5 82ZM40.5 83L41 82L40.5 82ZM48 83L48.5 84.5L48.5 83ZM55.5 84.5L55.5 85.5L55.5 85.5ZM32 86L32 88.5L32 88.5L32 86ZM39 87L39 89.5L39.5 90L39.5 87ZM47 88.5L46.5 88.5L47 91ZM54.5 89.5L54 89.5L54.5 92ZM27 90.5L27 90.5L27 93.5ZM34.5 92L34 93L34.5 93ZM41.5 93L42 94.5L42 93ZM49 94L49.5 95.5L49.5 94ZM63 85.5L62.5 86.5L63 86.5ZM70 88L70.5 86.5L70 86.5ZM77.5 89L78 88L77.5 88ZM85 89L85 90L85 89ZM61.5 90.5L61.5 93L61.5 93.5L61.5 90.5ZM69 92L69 94.5L69 92ZM76.5 96L76.5 93L76 93L76 95.5ZM83.5 94L84 97L84 94ZM56.5 95.5L56.5 96.5L56.5 95.5ZM63.5 96.5L64 98L64 96.5ZM71.5 99L71.5 97.5L71 97.5L71 99ZM78.5 99L78.5 101.5L79 101.5L79 99Z"/><path fill="#78929A" stroke="#78929A" stroke-width=".15" stroke-linejoin="round" d="M34.5 81L33.5 81L33.5 82L35 82.5ZM41 83L42 83.5L42 82L41 82ZM32 88.5L33.5 88L33.5 86L32 86ZM41 87L39.5 87L39.5 90L41 89ZM47 88.5L47 91L47 91L48.5 90.5L48.5 88.5ZM28.5 90.5L27 90.5L27 93.5L28.5 93.5ZM36 92L34.5 92L34.5 93L36 93.5ZM43.5 94.5L43.5 93L42 93L42 94.5ZM49.5 83L48.5 83L48.5 84.5L49.5 84.5ZM57 84.5L55.5 84.5L55.5 85.5L57 86ZM64.5 85.5L63 85.5L63 86.5L64.5 87ZM54.5 89.5L54.5 92L54.5 92.5L55.5 91.5L55.5 89.5ZM63 90.5L61.5 90.5L61.5 93.5L63 92.5ZM50.5 95.5L50.5 94L49.5 94L49.5 95.5ZM56.5 95.5L56.5 96.5L58 97L58 95.5ZM65.5 98L65.5 96.5L64 96.5L64 98ZM70.5 88L72 88L72 86.5L70.5 86.5ZM79 88L78 88L78 89L79 89.5ZM86.5 89L85 89L85 90L86.5 90.5ZM69 94.5L70.5 94L70.5 92L69 92ZM76.5 93L76.5 96L76.5 96L78 95L78 93ZM85 94.5L84 94L84 97L85 97ZM73 98L71.5 97.5L71.5 99L73 99ZM80 99L79 99L79 101.5L80 101.5Z"/><path fill="#E7D3AE" stroke="#E7D3AE" stroke-width=".15" stroke-linejoin="round" d="M32 77L31 78L31 79.5L32 80.5L34.5 81L37 80L37.5 78L36.5 77ZM40.5 82L44.5 81L44.5 79L42.5 78L38.5 78.5L38.5 81ZM32 86L36 85L36 83L35.5 82.5L32.5 82L30 83L30 85ZM39 87L43 86.5L43.5 84L41.5 83L40 83L37.5 84L37 86ZM29 86.5L25 87.5L25 89.5L25.5 90.5L28.5 90.5L31 90L31 87.5ZM32 89.5L32 91L34 92L38 91L38.5 89L36.5 88L33.5 88ZM40.5 92.5L44.5 93L45.5 92L45.5 90L43.5 89L40.5 89L39.5 90.5L39.5 92ZM51.5 79.5L47 79.5L46 80L46 82L48 83L51 83L52 81.5L52 80ZM45.5 88L49.5 88L50.5 87.5L50.5 85.5L49 84.5L45.5 84.5L44.5 86L44.5 87.5ZM47 93L49 94L52 94L53 93.5L53 91L51 90L48 90.5L47 91ZM59 80.5L54.5 80.5L53.5 81L53.5 83.5L55.5 84.5L58.5 84L59.5 83L59.5 81.5ZM65 81.5L61 82L60.5 84.5L62.5 85.5L64.5 85.5L66.5 84.5L67 82.5ZM58 89L58 86.5L57.5 86L54.5 85.5L52 86.5L52 88.5L52.5 89L55.5 89.5ZM65 87L60.5 87L59.5 87.5L59.5 89.5L61.5 90.5L64.5 90.5L65.5 89.5L65.5 87.5ZM54.5 94.5L56.5 95.5L59.5 95L60.5 94.5L60.5 92.5L58.5 91.5L55.5 91.5L54.5 92ZM63.5 96.5L67.5 96L68 93.5L66 92.5L62 93.5L62 95.5ZM69 83L68 84L68 85.5L69 86L71.5 86.5L74 86L74 83.5L73.5 83ZM76 87.5L80.5 87.5L81.5 87L81.5 85L79.5 84L76.5 84L75.5 85L75.5 87ZM67.5 91.5L72 91.5L72.5 91L73 89L71 88L68 88L67 89.5L67 91ZM75 92.5L79 93L80 92.5L80.5 90L78.5 89L75.5 89.5L74 90.5L74 92ZM69 95L69 96.5L71 97.5L75 97L75.5 94.5L73.5 93.5L70 94ZM83 85.5L83 88L83.5 88.5L86.5 89L89 88L89 86L88.5 85.5L85.5 85ZM83.5 94L87.5 93.5L87.5 91L85.5 90L81.5 91L81.5 93ZM76.5 98L78.5 99L81.5 98.5L82.5 98L82.5 96L80.5 95L77.5 95L76.5 95.5Z"/><path fill="#E0C49A" stroke="#E0C49A" stroke-width=".15" stroke-linejoin="round" d="M72.5 104L72.5 101L28 94L28 97Z"/><path fill="#BCA481" stroke="#BCA481" stroke-width=".15" stroke-linejoin="round" d="M74 99.5L72.5 101L72.5 104L74 102.5Z"/><path fill="#F1D3A6" stroke="#F1D3A6" stroke-width=".15" stroke-linejoin="round" d="M29.5 92.5L28 94L72.5 101L74 99.5Z"/><path fill="#6D858E" stroke="#6D858E" stroke-width=".15" stroke-linejoin="round" d="M36 58L42 59L42 55L35.5 54L35.5 59ZM104.5 65L97.5 64L97.5 68L103.5 69L103.5 77L104.5 77Z"/><path fill="#5B6F77" stroke="#5B6F77" stroke-width=".15" stroke-linejoin="round" d="M45.5 59.5L45.5 56.5L43 56.5L42.5 54.5L42 59ZM107.5 63.5L106 66.5L105 66L104.5 64.5L104.5 65L104.5 77L107.5 72L107.5 64Z"/><path fill="#758F99" stroke="#758F99" stroke-width=".15" stroke-linejoin="round" d="M42.5 54.5L36 53.5L35.5 54L42 55ZM104.5 65L104.5 64.5L98 63.5L97.5 64Z"/><path fill="#435964" stroke="#435964" stroke-width=".15" stroke-linejoin="round" d="M43 56.5L97.5 65L97.5 64.5L42.5 55.5ZM106 66L107.5 63.5L106 63.5L106 61.5L106.5 60.5L107.5 61L107 58L106 59L105 63L105 66Z"/><path fill="#506B78" stroke="#506B78" stroke-width=".15" stroke-linejoin="round" d="M106.5 58L107 58L37.5 47ZM35.5 54L42.5 54.5L42.5 55.5L97.5 64.5L98 63.5L104.5 64.5L105 65.5L105 64L91 61.5L90.5 62L54 55.5L53.5 56L35.5 53Z"/><path fill="#567381" stroke="#567381" stroke-width=".15" stroke-linejoin="round" d="M48.5 52.5L49 52L54 53L54.5 53.5L85.5 58.5L86 58L91 58.5L91.5 59.5L97.5 60.5L98 61L97.5 62L91 61L91 61.5L105 64L105.5 59.5L106.5 58L37.5 47L36.5 48.5L35.5 53L48 55L48 54.5L42 53.5L42 52.5L42 51.5ZM54 55.5L85 60.5L85 60L54.5 55.5Z"/><path fill="#9CB4B7" stroke="#9CB4B7" stroke-width=".15" stroke-linejoin="round" d="M32.5 49L32 51L35.5 51.5L36 49.5ZM106 61L105.5 62.5L109 63L109.5 61Z"/><path fill="#91A7AA" stroke="#91A7AA" stroke-width=".15" stroke-linejoin="round" d="M32 51.5L35.5 52L35.5 51.5L32 51ZM106 63L109 63L105.5 62.5Z"/><path fill="#798C8E" stroke="#798C8E" stroke-width=".15" stroke-linejoin="round" d="M32 51.5L32 52L35.5 52.5L35.5 52ZM109 63.5L106 63.5L109 64Z"/><path fill="#49646B" stroke="#49646B" stroke-width=".15" stroke-linejoin="round" d="M33 48L34 49L34 46L33 45L31 47.5L30.5 52L33.5 52.5L33.5 52L32 51.5ZM31.5 55.5L32.5 54.5L26.5 54.5L27.5 55ZM113.5 64L113.5 68L109.5 67.5L110 68L114.5 69L115 68.5L117 63L117 60L116.5 58.5L115 58.5L114.5 59.5Z"/><path fill="#5F818A" stroke="#5F818A" stroke-width=".15" stroke-linejoin="round" d="M28.5 44.5L27 47L26 51.5L30.5 52L31 47.5L33 45ZM110.5 59L109 65L113.5 65.5L114 61L116 58.5L111.5 57.5Z"/><path fill="#587880" stroke="#587880" stroke-width=".15" stroke-linejoin="round" d="M26.5 54.5L31 55L30.5 54.5L26.5 53.5ZM109.5 67.5L113.5 68L113.5 65.5L109 65Z"/><path fill="#71938E" stroke="#71938E" stroke-width=".15" stroke-linejoin="round" d="M46 38L43.5 37.5L43.5 48L46 48.5ZM103 57.5L103 47L100 46.5L100 57Z"/><path fill="#5E7B77" stroke="#5E7B77" stroke-width=".15" stroke-linejoin="round" d="M103 57.5L103.5 57.5L103.5 46L103 47Z"/><path fill="#7A9E99" stroke="#7A9E99" stroke-width=".15" stroke-linejoin="round" d="M46 38L46 37L44 36.5L43.5 37.5ZM100 46.5L103 47L103.5 46L100 45.5Z"/><path fill="#F0DDB8" stroke="#F0DDB8" stroke-width=".15" stroke-linejoin="round" d="M46 48.5L100 57L100 18.5L46 10ZM88.5 29L49.5 23L49.5 22L88.5 28ZM52.5 19L52.5 18L86 23L86 24ZM57 28L81 31.5L81 32.5L57 29ZM97.5 68L97.5 65L46 57L46 59.5Z"/><path fill="#C9B99A" stroke="#C9B99A" stroke-width=".15" stroke-linejoin="round" d="M100 57L100 46.5L100 18.5L100 18.5Z"/><path fill="#FFEEC6" stroke="#FFEEC6" stroke-width=".15" stroke-linejoin="round" d="M100 18.5L46.5 10L46 10Z"/><path fill="#8EA199" stroke="#8EA199" stroke-width=".15" stroke-linejoin="round" d="M48 54L42 53L48 54.5ZM54 55.5L85 60L53.5 55ZM97.5 60.5L97 62L90.5 61L97.5 62Z"/><path fill="#B7CFC5" stroke="#B7CFC5" stroke-width=".15" stroke-linejoin="round" d="M42 52L42 53L48 54L48.5 52.5ZM54 53.5L53.5 55L85 60L85.5 58.5ZM90.5 60L90.5 60.5L97 61.5L97.5 60.5Z"/><path fill="#AAC0B7" stroke="#AAC0B7" stroke-width=".15" stroke-linejoin="round" d="M48 54L42 53L48 54ZM53.5 55L85 60L53.5 55ZM97 61.5L90.5 61L97 62Z"/><path fill="#4D636D" stroke="#4D636D" stroke-width=".15" stroke-linejoin="round" d="M53.5 55L53.5 56L48 55L53.5 56L54.5 55.5L53.5 55L54 53.5L54.5 53.5L54 53ZM91 59L90.5 61.5L85 61L90.5 62L91 61L90.5 61L90.5 60L91.5 59.5Z"/><path fill="#637F8C" stroke="#637F8C" stroke-width=".15" stroke-linejoin="round" d="M48.5 52L48 54.5L53.5 55L54 53ZM85.5 58L85 60L90.5 61L91 58.5Z"/><path fill="#5C7682" stroke="#5C7682" stroke-width=".15" stroke-linejoin="round" d="M48 55L53.5 56L53.5 55L48 54.5ZM90.5 61L85 60L85 61L90.5 61.5Z"/><path fill="#B0C0B5" stroke="#B0C0B5" stroke-width=".15" stroke-linejoin="round" d="M27.5 43.5L22 51L20.5 51L20 52L34.5 55L34.5 53L22.5 51L24 49L28.5 44.5ZM32.5 49L34.5 49.5L33 48Z"/><path fill="#AF9D7B" stroke="#AF9D7B" stroke-width=".15" stroke-linejoin="round" d="M85.5 23L52.5 18L52.5 19L85.5 24ZM88.5 29L88.5 28L49.5 22L49.5 23ZM81 31.5L57 28L57 29L81 32.5Z"/><path fill="#BDA984" stroke="#BDA984" stroke-width=".15" stroke-linejoin="round" d="M85.5 23L86 23L52.5 18ZM49.5 22L88.5 28L88.5 28ZM57 27.5L57 28L81 31.5Z"/></svg>
