<?xml version="1.0" encoding="UTF-8" standalone="no"?>
<!DOCTYPE svg PUBLIC "-//W3C//DTD SVG 1.1//EN" "http://www.w3.org/Graphics/SVG/1.1/DTD/svg11.dtd">
<svg width="100%" height="100%" viewBox="0 0 64 115" version="1.1" xmlns="http://www.w3.org/2000/svg" xmlns:xlink="http://www.w3.org/1999/xlink" xml:space="preserve" xmlns:serif="http://www.serif.com/" style="fill-rule:evenodd;clip-rule:evenodd;stroke-linejoin:round;stroke-miterlimit:2;">
    <g transform="matrix(0.0302796,0.0661874,-0.0964291,0.0342282,53.9269,-17.918)">
        <path d="M409.44,41.48C407.82,56.19 405.46,70.08 407.06,85.01C407.89,99.9 409.89,114.67 413.97,129.04C415.75,135.9 417.94,142.59 421.07,148.97C428.88,139.9 436.84,129.73 448.16,124.97C455,121.71 462.64,120.63 469.29,117.13C479.67,111.19 487.01,102.01 492.58,91.59C495.45,86.18 497.06,80.56 499.54,74.86C503.06,82.82 504.11,92.23 505.51,100.79C507.5,113.1 505.92,124.69 504.16,136.89C502.7,145.88 500.82,155.69 496.66,163.86C490.86,174.83 481.36,181.91 474.29,191.21C470.31,196.42 471.01,202.41 471.82,208.52C473.55,218.79 474.85,228.76 473.78,239.19C472.15,268.72 458.49,296.81 437.03,317.03C428.41,326.23 418.52,333.83 408.53,341.44C400.83,339.88 393.15,338.12 385.39,336.91C370.64,334.67 355.85,333.69 340.99,332.68C336,332.48 330.99,332.55 326,332.54C315.96,332.58 306.02,332.21 296.03,333.41C274.75,334.89 253.06,337.39 232.32,342.44C226.2,338.51 221.09,334.16 216.35,328.64C206.52,318.2 199.44,305.46 195.22,291.79C190.9,277.88 189.8,263.45 190.77,248.96C192.89,224.79 202.7,201.83 215.4,181.4C221.06,172.44 225.89,163.05 230.59,153.57C234.81,145.05 239.49,136.97 242.9,128.06C243.7,126.48 244.4,123.8 246.02,122.94C250.55,124.15 254.61,127.89 257.95,131.05C262.99,135.83 266.04,141.53 269.86,147.21C278.57,138.13 286.62,128.38 294.87,118.88C305.69,106.62 315.33,92.24 327.31,80.3C334.28,73.35 342.24,67.63 350.78,62.77C361.76,56.51 374.32,52.28 386.25,48C393.86,45.61 401.59,42.75 409.44,41.48Z" style="fill:rgb(255,158,9);fill-rule:nonzero;"/>
    </g>
    <g transform="matrix(0.0810122,0,0,0.0880847,3.65282,-1.55421)">
        <path d="M409.44,41.48C407.82,56.19 405.46,70.08 407.06,85.01C407.89,99.9 409.89,114.67 413.97,129.04C415.75,135.9 417.94,142.59 421.07,148.97C428.88,139.9 436.84,129.73 448.16,124.97C455,121.71 462.64,120.63 469.29,117.13C479.67,111.19 487.01,102.01 492.58,91.59C495.45,86.18 497.06,80.56 499.54,74.86C503.06,82.82 504.11,92.23 505.51,100.79C507.5,113.1 505.92,124.69 504.16,136.89C502.7,145.88 500.82,155.69 496.66,163.86C490.86,174.83 481.36,181.91 474.29,191.21C470.31,196.42 471.01,202.41 471.82,208.52C473.55,218.79 474.85,228.76 473.78,239.19C472.15,268.72 458.49,296.81 437.03,317.03C428.41,326.23 418.52,333.83 408.53,341.44C400.83,339.88 393.15,338.12 385.39,336.91C370.64,334.67 355.85,333.69 340.99,332.68C336,332.48 330.99,332.55 326,332.54C315.96,332.58 306.02,332.21 296.03,333.41C274.75,334.89 253.06,337.39 232.32,342.44C226.2,338.51 221.09,334.16 216.35,328.64C206.52,318.2 199.44,305.46 195.22,291.79C190.9,277.88 189.8,263.45 190.77,248.96C192.89,224.79 202.7,201.83 215.4,181.4C221.06,172.44 225.89,163.05 230.59,153.57C234.81,145.05 239.49,136.97 242.9,128.06C243.7,126.48 244.4,123.8 246.02,122.94C250.55,124.15 254.61,127.89 257.95,131.05C262.99,135.83 266.04,141.53 269.86,147.21C278.57,138.13 286.62,128.38 294.87,118.88C305.69,106.62 315.33,92.24 327.31,80.3C334.28,73.35 342.24,67.63 350.78,62.77C361.76,56.51 374.32,52.28 386.25,48C393.86,45.61 401.59,42.75 409.44,41.48Z" style="fill:rgb(255,198,22);fill-rule:nonzero;"/>
    </g>
    <g transform="matrix(0.0537965,0,0,0.0564753,11.8753,8.87893)">
        <path d="M409.44,41.48C407.82,56.19 405.46,70.08 407.06,85.01C407.89,99.9 409.89,114.67 413.97,129.04C415.75,135.9 417.94,142.59 421.07,148.97C428.88,139.9 436.84,129.73 448.16,124.97C455,121.71 462.64,120.63 469.29,117.13C479.67,111.19 487.01,102.01 492.58,91.59C495.45,86.18 497.06,80.56 499.54,74.86C503.06,82.82 504.11,92.23 505.51,100.79C507.5,113.1 505.92,124.69 504.16,136.89C502.7,145.88 500.82,155.69 496.66,163.86C490.86,174.83 481.36,181.91 474.29,191.21C470.31,196.42 471.01,202.41 471.82,208.52C473.55,218.79 474.85,228.76 473.78,239.19C472.15,268.72 458.49,296.81 437.03,317.03C428.41,326.23 418.52,333.83 408.53,341.44C400.83,339.88 393.15,338.12 385.39,336.91C370.64,334.67 355.85,333.69 340.99,332.68C336,332.48 330.99,332.55 326,332.54C315.96,332.58 306.02,332.21 296.03,333.41C274.75,334.89 253.06,337.39 232.32,342.44C226.2,338.51 221.09,334.16 216.35,328.64C206.52,318.2 199.44,305.46 195.22,291.79C190.9,277.88 189.8,263.45 190.77,248.96C192.89,224.79 202.7,201.83 215.4,181.4C221.06,172.44 225.89,163.05 230.59,153.57C234.81,145.05 239.49,136.97 242.9,128.06C243.7,126.48 244.4,123.8 246.02,122.94C250.55,124.15 254.61,127.89 257.95,131.05C262.99,135.83 266.04,141.53 269.86,147.21C278.57,138.13 286.62,128.38 294.87,118.88C305.69,106.62 315.33,92.24 327.31,80.3C334.28,73.35 342.24,67.63 350.78,62.77C361.76,56.51 374.32,52.28 386.25,48C393.86,45.61 401.59,42.75 409.44,41.48Z" style="fill:rgb(248,226,85);fill-rule:nonzero;"/>
    </g>
    <g transform="matrix(0.0913867,0,0,0.0780541,-0.479236,1.56614)">
        <path d="M326,332.54C330.99,332.55 336,332.48 340.99,332.68C355.85,333.69 370.64,334.67 385.39,336.91C393.15,338.12 400.83,339.88 408.53,341.44C415.05,343.27 423.92,344.23 428.97,349.03C433.51,353.38 432.37,359.32 432.57,365C432.9,380.57 432.23,396.19 432.96,411.75C440.99,412.67 448.96,414.02 456.99,414.85C465.37,403.56 480.03,396.92 493.82,395.9C497.39,404.84 496.74,413.72 496.59,423.11C506,425.13 515.15,428.04 524.46,430.43C533.13,420.28 546.44,414.99 559.66,415.18C559.66,419.02 559.78,423.02 559.38,426.84C558.84,431.58 557.23,436.43 555.86,441.01C558.45,442.31 561.04,443.57 563.67,444.79C571.14,438.64 579.4,435.46 589.15,435.61C587.88,443.47 584.78,450.48 582.01,457.86C584.68,460.69 588.21,463.95 588.48,468.08C588.71,470.72 586.34,472.92 584.51,474.5C577.92,479.73 579.007,483.153 574.117,490.233C568.067,499.073 569.236,509.843 569.056,520.353C568.526,534.553 568.907,548.803 575.587,561.333C579.617,568.313 575.36,575.75 578.65,583.19C581.36,589.12 582.08,595.54 581.7,602C581.52,605.18 579.85,607.49 577.97,609.91C579.44,606.93 581.01,603.5 581.15,600.14C580.27,597.93 578.13,596.15 576.28,594.73C568.23,588.76 559.22,585.06 549.76,581.96C534.54,576.42 518.29,573.37 502.54,569.6C466.5,562.47 429.44,559.14 392.83,556.61C385.52,556.36 378.24,556.01 370.94,555.55C311.28,553.7 251.77,554.78 192.44,561.68C162.6,566.09 133.6,569.75 104.55,578.49C92.5,582.39 80.19,586.33 69.78,593.78C67.77,595.26 65.39,597.06 64.27,599.34C63.66,601.8 64.32,604.68 64.73,607.14C61.08,600.91 62.76,594.56 64.29,587.97C67.61,576.11 66.633,567.991 71.533,557.021C76.553,545.501 79.113,532.171 78.493,519.621C77.593,509.861 76.243,499.551 70.543,491.291C65.523,483.901 67.07,480.05 60.08,474.91C57.89,473.1 55.16,471.19 55.36,468C55.06,463.68 59.69,460.54 62.44,457.84C59.51,450.5 55.72,444.18 55.09,436.08C63.77,435.16 71.89,437.97 78.6,443.42C81.42,446.25 85.51,442.37 88.3,441.19C85.86,432.7 83.83,424.36 84.68,415.43C92.06,415.47 99.36,417.27 106.16,420.08C111.43,422.35 115.22,426.03 119.25,429.98C129.04,427.74 138.72,425.29 148.6,423.44C148.03,419.25 147.4,415.21 147.55,410.96C147.65,405.82 149.1,401.03 150.47,396.12C159.72,396.55 169.31,399.85 177.01,404.96C180.76,407.31 183.15,410.72 186.1,413.88C187.3,415.41 189.27,414.67 190.96,414.71C197.61,414.05 204.22,412.94 210.88,412.33C211.49,406.22 211.34,400.13 211.24,394C211.3,383.68 211.27,373.36 211.41,363.05C211.52,358.16 210.91,353.39 214.53,349.52C218.68,345.04 226.65,344.06 232.32,342.44C253.06,337.39 274.75,334.89 296.03,333.41C306.02,332.21 315.96,332.58 326,332.54Z" style="fill:rgb(116,195,165);fill-rule:nonzero;"/>
    </g>
    <g transform="matrix(0.0913867,0,0,0.0780541,-0.479236,1.56614)">
        <path d="M333,355.49C345.85,355.2 358.15,356.81 371.01,357.78C386.81,359.34 402.49,361.97 417.89,365.87C422.45,367.13 427.81,367.8 431.84,370.35C432.55,373.48 432.2,377.01 432.08,380.21C421.8,377.77 411.58,375 401.25,372.8C358.44,365.37 314.49,364.05 271.28,368.49C263.47,369.33 255.74,370.86 247.95,371.97C235.5,373.72 224.07,377.29 211.89,380.17C211.76,376.78 211.7,373.38 211.68,369.98C217.81,367.48 224.17,365.98 230.61,364.57C249.16,359.96 267.98,357.74 287.02,356.49C302.4,354.84 317.46,355.71 333,355.49Z" style="fill:rgb(75,125,132);fill-rule:nonzero;"/>
    </g>
    <g transform="matrix(0.0913867,0,0,0.0780541,-0.479236,1.56614)">
        <path d="M310,373.87C323.73,373.07 337.3,374.18 351.01,374.48C364.14,374.96 376.78,376.87 389.84,378.42C400.7,380.4 411.62,382.47 422.19,385.68C425.27,386.64 429.09,387.38 431.63,389.46C433.16,396.61 432.07,404.56 431.98,411.87C428.19,411.71 424.43,411.41 420.68,410.86C419.76,400.77 416.2,391.37 409.14,383.99C408.11,382.86 405.54,383.74 404.29,384.1C398.53,386.18 393.19,389.65 388.33,393.34C383.27,397.21 380.43,402.21 377.05,407.46C372.75,407.48 368.48,407.33 364.2,406.94C357.81,406.35 351.46,406.52 345.02,406.25C342.16,400.35 339.65,394.77 335.04,389.96C331.34,385.89 326.86,382.9 322,380.4C316.42,383.57 311.25,387.16 307.25,392.26C303.76,396.52 302.07,401.37 300.37,406.52C289.02,406.57 277.86,408.07 266.52,407.5C264.07,402.98 261.62,398.73 257.65,395.35C251.29,389.67 244.01,386.58 236.84,382.23C250.99,378.62 265.42,376.88 280.01,375.3C290,374.13 299.97,374.53 310,373.87Z" style="fill:rgb(75,125,132);fill-rule:nonzero;"/>
    </g>
    <g transform="matrix(0.0913867,0,0,0.0780541,-0.479236,1.56614)">
        <path d="M235.19,382.68C232.66,387.53 229.11,391.69 226.43,396.43C223.86,400.99 223.29,405.75 222.57,410.84C219.06,411.34 215.55,411.71 212.02,411.99C211.39,404.29 211.56,396.61 211.75,388.9C219.54,386.19 226.93,383.54 235.19,382.68Z" style="fill:rgb(75,125,132);fill-rule:nonzero;"/>
    </g>
    <g transform="matrix(0.0913867,0,0,0.0780541,-0.479236,1.56614)">
        <path d="M287.2,434C291.05,433.68 295.18,433.18 299.01,433.73C301.31,433.91 303.12,436.41 304.74,437.87C301.92,442.97 298.77,447.88 295.96,452.99C292,460.29 288.21,467.68 284.07,474.89C278.79,485.56 274.88,496.91 269.84,507.69C260.31,488.95 250.37,470.75 238.86,453.14C236.32,449.2 232.43,445.47 230.87,441.04C231.5,439 232.6,437.99 234.66,437.46C238.89,436.44 243.47,436.59 247.8,436.22C254.56,435.62 261.34,435.47 268.1,434.89C274.47,434.34 280.84,434.64 287.2,434Z" style="fill:rgb(75,125,132);fill-rule:nonzero;"/>
    </g>
    <g transform="matrix(0.0913867,0,0,0.0780541,-0.479236,1.56614)">
        <path d="M343.35,434.18C345.09,433.52 347.13,433.52 348.96,433.44C356.95,433.29 364.98,434.28 373.02,434.65C380.75,435.23 388.48,435.58 396.2,436.25C400.75,436.66 405.41,436.38 409.91,437.11C411.83,437.29 413.04,439.52 414.27,440.83C410.37,446.48 406.07,451.66 402.61,457.61C397.22,466.9 391.06,475.55 386.15,485.12C382.08,492.51 379.13,500.57 374.33,507.43C370.65,499.67 367.8,491.56 364.18,483.77C360.18,474.67 355.11,466.24 350.54,457.44C347.11,450.69 342.52,444.67 339.19,437.87C340.51,436.6 341.82,435.18 343.35,434.18Z" style="fill:rgb(75,125,132);fill-rule:nonzero;"/>
    </g>
    <g transform="matrix(0.0913867,0,0,0.0780541,-0.479236,1.56614)">
        <path d="M321.96,458.45C326.23,463.23 328.72,468.64 331.83,474.16C335.27,480.5 338.94,486.8 341.63,493.42C343.85,498.93 346.22,504.35 348.16,509.97C338.48,510.66 328.75,510 319,510.12C311.18,509.97 303.81,510.95 296.06,509.35C300.51,498.06 305.54,487.01 311.33,476.34C314.83,470 317.2,463.81 321.96,458.45Z" style="fill:rgb(75,125,132);fill-rule:nonzero;"/>
    </g>
    <g transform="matrix(0.0913867,0,0,0.0780541,-0.479236,1.56614)">
        <path d="M160.61,462.45C162.85,461.84 165,463.07 166.92,464.08C172.74,467.47 178.31,471.64 182.41,477.04C182.83,480.44 182.1,483.59 180.88,486.74C177.73,495.01 175.26,503.49 173.13,512.07C172.34,515.33 171.1,518.38 169.55,521.35C166.61,514.72 164.78,507.72 161.94,501.06C159.95,496.17 157.51,491.52 155.09,486.84C154.04,484.61 152.58,481.88 153.11,479.36C153.85,475.43 155.39,471.62 156.85,467.91C157.9,466.01 159.07,464 160.61,462.45Z" style="fill:rgb(75,125,132);fill-rule:nonzero;"/>
    </g>
    <g transform="matrix(0.0913867,0,0,0.0780541,-0.479236,1.56614)">
        <path d="M482.91,462.52C486,464.26 487.75,468.75 489.15,471.88C490.07,475.53 492.31,480.7 490.36,484.29C486.54,492.38 481.37,500.74 478.74,509.52C477.53,513.54 476.23,517.51 474.5,521.35C471.11,514.84 470.04,506.97 468.01,499.8C466.31,492.33 463.23,485.47 460.64,478.3C465.31,472.69 470.75,467.86 477.22,464.41C478.99,463.5 480.92,462.72 482.91,462.52Z" style="fill:rgb(75,125,132);fill-rule:nonzero;"/>
    </g>
    <g transform="matrix(0.0913867,0,0,0.0780541,-0.479236,1.56614)">
        <path d="M427.81,464.89C433.09,473.76 436.86,483.65 439.84,493.5C442.46,501.44 445.93,508.86 447.3,517.19C431.76,515.78 416.27,513.94 400.71,512.73C402.68,505.8 406.14,499.74 409.44,493.41C412.96,486.81 417.12,480.48 421,474.02C422.97,470.75 425.13,467.62 427.81,464.89Z" style="fill:rgb(75,125,132);fill-rule:nonzero;"/>
    </g>
    <g transform="matrix(0.0913867,0,0,0.0780541,-0.479236,1.56614)">
        <path d="M98.44,465.83C101.64,468.28 104.78,470.81 108.04,473.18C106.9,482.45 106.46,491.72 105.9,501.03C105.16,508.64 105.53,515.69 103.67,523.13C101.45,514.63 101.1,505.83 98.66,497.36C96.48,487.98 92.62,479.35 88.34,470.78C91.46,468.47 94.79,467.04 98.44,465.83Z" style="fill:rgb(75,125,132);fill-rule:nonzero;"/>
    </g>
    <g transform="matrix(0.0913867,0,0,0.0780541,-0.479236,1.56614)">
        <path d="M216,465.21C221.05,470.03 223.73,475.71 227.48,481.53C233.67,491.34 239.15,501.49 243.38,512.31C240.01,513.03 236.63,513.56 233.2,513.78C221.03,514.61 208.88,516.48 196.7,517C199.36,504.33 203.92,491.96 208.98,480.06C211.03,474.91 212.8,469.81 216,465.21Z" style="fill:rgb(75,125,132);fill-rule:nonzero;"/>
    </g>
    <g transform="matrix(0.0913867,0,0,0.0780541,-0.479236,1.56614)">
        <path d="M555.21,470.2C554.77,473.18 553.19,476.11 551.92,478.84C548.61,485.7 546.46,493.22 544.62,500.59C542.83,507.67 542.26,514.93 540.46,522C538.62,513.28 538.58,503.96 537.87,494.97C537.59,487.41 536.29,480.11 536.88,472.53C539.81,470.38 542.71,468.21 545.54,465.93C549.2,466.78 552.51,467.29 555.21,470.2Z" style="fill:rgb(75,125,132);fill-rule:nonzero;"/>
    </g>
    <g transform="matrix(0.0913867,0,0,0.0780541,-0.479236,1.56614)">
        <path d="M127.19,483.01C132.52,489.18 135.77,497.54 139.24,504.87C142.5,511.73 145.25,518.67 146.92,526.11C138.6,529.05 129.72,530.61 121.08,532.32C121.93,522.83 123.68,513.49 124.44,503.99C125.05,497.11 125.27,489.64 127.19,483.01Z" style="fill:rgb(75,125,132);fill-rule:nonzero;"/>
    </g>
    <g transform="matrix(0.0913867,0,0,0.0780541,-0.479236,1.56614)">
        <path d="M516.42,483.44C518.88,489.7 518.53,497.07 519.56,503.88C520.45,513.42 522.37,522.8 523.28,532.33C514.68,530.21 506.21,527.74 497.53,525.95C498.77,517.16 502.72,508.54 506.52,500.55C509.52,494.54 512.29,488.77 516.42,483.44Z" style="fill:rgb(75,125,132);fill-rule:nonzero;"/>
    </g>
    <g transform="matrix(0.0913867,0,0,0.0693985,-0.479236,6.36779)">
        <path d="M370.94,555.55C378.24,556.01 385.52,556.36 392.83,556.61C429.44,559.14 466.5,562.47 502.54,569.6C518.29,573.37 534.54,576.42 549.76,581.96C559.22,585.06 568.23,588.76 576.28,594.73C578.13,596.15 580.27,597.93 581.15,600.14C581.01,603.5 579.44,606.93 577.97,609.91C576.5,611.78 574.75,613.45 572.96,615.01C571.71,615.73 570.41,616.4 569.13,617.07C569.22,614.6 569.49,612.01 569.16,609.55C568.82,607.02 566.57,604.87 564.73,603.27C558.37,597.98 550.47,595.21 542.9,592.17C537.72,590.08 532.4,588.49 526.95,587.25C519.14,585.51 511.55,583.09 503.68,581.62C486.21,578.22 468.53,575.82 450.89,573.46C432.96,571.16 415,569.99 396.99,568.63C384.67,568.26 372.38,567.59 360.06,567.44C339.43,566.32 318.66,566.74 298,566.93C286.12,567.73 274.22,567.25 262.36,568.24C242.22,569.11 222.08,570.74 202.03,572.8C191.62,573.94 181.36,574.57 171.06,576.38C151.83,579.47 132.85,582.22 114.25,588.27C101.42,591.69 89.54,595.38 79.3,604.31C75.13,607.95 75.98,613.24 75.39,618.26C71.17,615.04 67.21,611.98 64.73,607.14C64.32,604.68 63.66,601.8 64.27,599.34C65.39,597.06 67.77,595.26 69.78,593.78C80.19,586.33 92.5,582.39 104.55,578.49C133.6,569.75 162.6,566.09 192.44,561.68C251.77,554.78 311.28,553.7 370.94,555.55Z" style="fill:rgb(75,125,132);fill-rule:nonzero;"/>
    </g>
    <g transform="matrix(0.0913867,0,0,0.0693985,-0.479236,6.36779)">
        <path d="M298,566.93C318.66,566.74 339.43,566.32 360.06,567.44C372.38,567.59 384.67,568.26 396.99,568.63C415,569.99 432.96,571.16 450.89,573.46C468.53,575.82 486.21,578.22 503.68,581.62C511.55,583.09 519.14,585.51 526.95,587.25C532.4,588.49 537.72,590.08 542.9,592.17C550.47,595.21 558.37,597.98 564.73,603.27C566.57,604.87 568.82,607.02 569.16,609.55C569.49,612.01 569.22,614.6 569.13,617.07C570.41,616.4 571.71,615.73 572.96,615.01C570.54,617.22 567.84,619.28 566.16,622.12C563.7,626.31 561.9,630.86 559.43,635.05C558.8,631.64 558.63,628.53 556.19,625.84C551.65,620.64 544.39,617.42 538.15,614.73C531.29,611.7 524.12,610.25 517,608C502.51,603.35 486.68,601.07 471.66,598.55C440.96,593.96 410.02,591.15 378.99,590.19C371.66,589.68 364.36,589.33 357,589.41C326.35,588.96 295.63,588.84 265,590.21C246.26,590.48 227.46,592.36 208.79,593.9C189.61,595.92 170.72,598.2 151.81,601.98C136.21,605.06 119.65,608.4 105.21,615.19C98.45,618.21 92.15,621.57 87.56,627.59C85.53,630.19 85.77,633.08 85.48,636.19C81.57,630.58 79.87,623.36 75.39,618.26C75.98,613.24 75.13,607.95 79.3,604.31C89.54,595.38 101.42,591.69 114.25,588.27C132.85,582.22 151.83,579.47 171.06,576.38C181.36,574.57 191.62,573.94 202.03,572.8C222.08,570.74 242.22,569.11 262.36,568.24C274.22,567.25 286.12,567.73 298,566.93Z" style="fill:rgb(116,195,165);fill-rule:nonzero;"/>
    </g>
    <g transform="matrix(0.0913867,0,0,0.0693985,-0.479236,6.36779)">
        <path d="M357,589.41C364.36,589.33 371.66,589.68 378.99,590.19C410.02,591.15 440.96,593.96 471.66,598.55C486.68,601.07 502.51,603.35 517,608C524.12,610.25 531.29,611.7 538.15,614.73C544.39,617.42 551.65,620.64 556.19,625.84C558.63,628.53 558.8,631.64 559.43,635.05C553.51,643.99 541.99,649.46 532.44,653.62C523.97,657.47 515.2,660.47 506.32,663.22C487.51,668.71 468.47,673.27 449.27,677.17C453.17,681.11 457.14,684.36 459.85,689.29C462.81,694.41 463.8,700.17 463.64,706.03C463.79,713.72 460.8,721.78 454.94,726.91C451.01,730.3 445.89,732.72 441.21,734.91C439.71,735.69 437.87,736.39 436.75,737.67C436.1,742.73 436.7,747.91 436.08,753C435.25,759.65 435.63,766.31 435.03,772.98C434.41,779.98 434.55,787.08 434.23,794.11C433.99,790.72 433.89,787.32 433.67,783.92C433.44,793.07 433.9,802.41 432.82,811.49C432.21,818.31 432.65,825.16 431.97,832C431.33,838.73 431.8,845.38 430.93,852.09C430.28,857.69 430.61,863.3 430.01,868.91C429.27,875.93 429.7,882.96 429.01,890C428.36,897 428.76,903.99 428.02,910.99C427.27,918.06 427.87,925.18 427.09,932.21C425.69,944.76 425.95,957.4 424.64,969.94C424.38,975.65 424.61,981.3 424.01,987C423.25,994.67 423.8,1002.35 422.96,1010.03C422.28,1016.69 422.72,1023.34 422.03,1029.99C421.39,1035.66 421.66,1041.34 421.01,1047C420.26,1053.99 420.7,1061 420.03,1068.01C419.42,1074.16 419.82,1080.23 418.97,1086.36C418.12,1092.6 418.64,1098.73 418.01,1105C417.26,1112.13 417.81,1119.26 416.93,1126.36C416.28,1131.9 416.5,1137.45 415.96,1143C415.32,1150.5 415.83,1157.88 414.91,1165.25C414.2,1171.5 414.64,1177.73 414,1184C413.25,1191.33 413.71,1198.67 412.93,1206C412.28,1212.95 412.83,1219.73 411.83,1226.65C410.96,1236.65 410.63,1246.65 410.23,1256.67C409.28,1264.14 409.81,1271.65 408.93,1279.11C408.55,1282.67 408.44,1286.23 408.21,1289.8C407.78,1290.93 407.33,1292.05 406.88,1293.16C398.58,1293.68 390.31,1293.35 382,1293.41C374.01,1293.39 366.05,1293.66 358.07,1293.19C358.72,1275.13 358.5,1257.06 359,1238.99C359.94,1224.66 359.34,1210.33 359.9,1195.99C361.12,1178.67 360.23,1161.31 361.1,1143.96C361.9,1129.97 361.42,1116.02 361.7,1102C361.65,1093.99 362.47,1086.03 362.55,1078.03C362.68,1063.5 362.49,1048.89 363.35,1034.37C363.85,1021.59 363.39,1008.81 364.22,996.02C364.94,982.36 364.28,968.69 365.2,955.02C366.1,940.11 364.98,925.28 366.3,910.37C366.89,895.91 366.44,881.42 367.19,866.96C367.96,853.3 367.19,839.61 367.98,825.96C368.91,814.94 368.46,804.04 368.62,792.98C368.67,782.26 366.77,771.52 360.29,762.72C354.85,755.38 346.37,751.26 338.12,747.88C312.43,737.59 284.54,733.17 256.97,732.64C247.14,733.38 236.89,733.82 227.36,736.08C223.19,737.01 219.31,737.99 215,737.36C211.4,735.67 207.86,733.84 204.34,732C204.67,730.58 204.62,728.8 205.81,727.83C209.86,724.05 215.78,721.81 220.88,719.83C240.74,711.85 263.64,710.31 284.78,707.99C292.84,707.48 300.91,706.97 308.97,706.48C326.99,706.37 345.01,706.37 363.03,706.48C372.33,707.03 381.61,707.73 390.93,707.91C396.07,707.99 401.29,706.81 405.07,703.13C407.26,701.15 406.95,697.71 406.76,695.04C406.4,690.94 404.25,687.5 401.33,684.71C396.64,680.24 390.48,676.96 384.58,674.38C370.46,668.31 355.11,664.27 340.12,660.86C327.57,658.44 314.9,655.87 302.09,657.13C284.13,657.83 266.15,659.46 248.38,662.16C236.94,664.28 225.22,666.34 214.21,670.17C209.68,671.61 206.06,674.78 201.71,676.47C197.61,676.89 193.2,675.65 189.16,674.98C180.14,673.08 171.15,671.43 162.25,668.99C142.04,663.72 120.31,658.11 101.69,648.51C95.52,645.29 89.84,641.73 85.48,636.19C85.77,633.08 85.53,630.19 87.56,627.59C92.15,621.57 98.45,618.21 105.21,615.19C119.65,608.4 136.21,605.06 151.81,601.98C170.72,598.2 189.61,595.92 208.79,593.9C227.46,592.36 246.26,590.48 265,590.21C295.63,588.84 326.35,588.96 357,589.41Z" style="fill:rgb(75,125,132);fill-rule:nonzero;"/>
    </g>
    <g transform="matrix(0.0913867,0,0,0.0693985,-0.479236,6.36779)">
        <path d="M302.09,657.13C314.9,655.87 327.57,658.44 340.12,660.86C355.11,664.27 370.46,668.31 384.58,674.38C390.48,676.96 396.64,680.24 401.33,684.71C404.25,687.5 406.4,690.94 406.76,695.04C406.95,697.71 407.26,701.15 405.07,703.13C401.29,706.81 396.07,707.99 390.93,707.91C381.61,707.73 372.33,707.03 363.03,706.48C345.01,706.37 326.99,706.37 308.97,706.48C300.91,706.97 292.84,707.48 284.78,707.99C263.64,710.31 240.74,711.85 220.88,719.83C215.78,721.81 209.86,724.05 205.81,727.83C204.62,728.8 204.67,730.58 204.34,732C199.24,728.94 193.29,724.78 190.76,719.23C186.71,709.77 186.84,698.79 191.46,689.55C193.6,685.31 196.7,682.02 199.72,678.41C196.3,676.96 192.81,675.73 189.16,674.98C193.2,675.65 197.61,676.89 201.71,676.47C206.06,674.78 209.68,671.61 214.21,670.17C225.22,666.34 236.94,664.28 248.38,662.16C266.15,659.46 284.13,657.83 302.09,657.13Z" style="fill:rgb(116,195,165);fill-rule:nonzero;"/>
    </g>
    <g transform="matrix(0.0913867,0,0,0.0693985,-0.479236,6.36779)">
        <path d="M256.97,732.64C284.54,733.17 312.43,737.59 338.12,747.88C346.37,751.26 354.85,755.38 360.29,762.72C366.77,771.52 368.67,782.26 368.62,792.98C368.46,804.04 368.91,814.94 367.98,825.96C367.19,839.61 367.96,853.3 367.19,866.96C366.44,881.42 366.89,895.91 366.3,910.37C364.98,925.28 366.1,940.11 365.2,955.02C364.28,968.69 364.94,982.36 364.22,996.02C363.39,1008.81 363.85,1021.59 363.35,1034.37C362.49,1048.89 362.68,1063.5 362.55,1078.03C362.47,1086.03 361.65,1093.99 361.7,1102C361.42,1116.02 361.9,1129.97 361.1,1143.96C360.23,1161.31 361.12,1178.67 359.9,1195.99C359.34,1210.33 359.94,1224.66 359,1238.99C358.5,1257.06 358.72,1275.13 358.07,1293.19C366.05,1293.66 374.01,1293.39 382,1293.41C390.31,1293.35 398.58,1293.68 406.88,1293.16C407.33,1292.05 407.78,1290.93 408.21,1289.8C408.2,1292.09 408.25,1294.39 408.35,1296.68L408.38,1297.37C411.05,1297.71 413.72,1298.04 416.38,1298.44C405.01,1299.65 393.43,1299.03 382,1299.19C366.66,1298.5 351.35,1299.54 336,1298.95C302.67,1298.66 269.33,1299.03 235.99,1298.79C235.74,1304.41 235.73,1310.01 236.17,1315.63C243.45,1315.95 250.72,1315.75 258,1315.68C288.33,1315.8 318.67,1315.74 349,1315.83C354.31,1315.89 359.74,1315.43 365.01,1316.02C370.53,1316.41 374.78,1321.7 376.44,1326.59C378.46,1333.1 378.11,1341.3 374.09,1347.01C370.57,1352.11 364.13,1354.66 358.38,1356.28C345.83,1359.43 332.95,1361.11 320,1360.86C303.33,1360.94 286.67,1360.77 270,1360.87C261.61,1360.86 253.24,1360.75 244.86,1361.34C244.85,1362.58 244.84,1363.83 244.85,1365.08C244.49,1363.91 244.1,1362.74 243.72,1361.58C240,1361.21 235.16,1361.19 232.02,1358.95C227.57,1355.78 225.58,1350.17 224.88,1344.95C224.21,1338.76 224.04,1330.93 227.38,1325.42C229.23,1322.06 233.45,1320.16 235.04,1316.85C235.8,1310.21 234.97,1303.41 235.48,1296.72C238.45,1296.61 241.41,1296.41 244.38,1296.27C243.38,1270.37 241.43,1244.4 240.16,1218.49C239.25,1209.35 239.77,1200.18 238.69,1191.04C237.63,1169.7 235.94,1148.36 235.37,1127.01C234.25,1113.81 234.09,1100.54 232.94,1087.34C232.38,1081.23 232.51,1075.12 232.06,1069C231.39,1060.65 231.84,1052.32 230.85,1043.99C229.85,1027 228.72,1009.99 228.41,992.96C226.72,967.1 225.2,941.08 224.3,915.19C223.27,906.43 223.84,897.65 222.89,888.91C222.35,882.91 222.6,876.9 221.94,870.91C221.2,863.48 221.79,856.08 221,848.66C220.43,843.45 220.38,838.22 219.92,832.99C219.2,824.32 219.81,815.65 218.79,806.99C217.93,790.05 216.76,772.94 216.43,755.97C216.06,749.76 215.41,743.57 215,737.36C219.31,737.99 223.19,737.01 227.36,736.08C236.89,733.82 247.14,733.38 256.97,732.64Z" style="fill:rgb(116,195,165);fill-rule:nonzero;"/>
    </g>
    <g transform="matrix(0.0913867,0,0,0.0693985,-0.479236,6.36779)">
        <path d="M408.35,1296.68C411.07,1297.07 413.79,1297.48 416.53,1297.69C416.76,1304.07 416.16,1310.55 416.79,1316.89C419.19,1320.18 422.99,1322.05 425.06,1325.9C427.75,1330.83 427.48,1337.61 427.31,1343.06C427.06,1348.76 425.43,1354.19 421.09,1358.1C417.99,1361.28 411.94,1360.79 407.78,1361.49C402.94,1394.64 398.79,1427.95 396.01,1461.34C395.09,1470.42 394.66,1479.04 391.91,1487.88C389.33,1496.55 384.76,1504.19 379.15,1511.22C374.68,1516.95 368.56,1521.61 362.45,1525.49C348.55,1534.11 332.09,1536.91 315.96,1535.05C301.34,1533.01 287.81,1526.03 277.29,1515.72C282.81,1514.6 287.46,1516.26 292.99,1516.36C305.07,1516.94 317.05,1513.59 327.36,1507.37C338.17,1500.51 346.79,1489.91 349.51,1477.22C352.18,1465.09 352.6,1452.38 353.41,1440.01C353.31,1429.77 355.51,1420.79 353.8,1410.62C352.68,1402.76 348.86,1395.34 342.24,1390.77C335.5,1386.17 327.31,1383.44 319.38,1381.81C301.95,1378.15 284.7,1378.13 267,1378.2C261.09,1378.08 255.23,1378.83 249.33,1378.86C248.45,1378.32 247.57,1377.77 246.7,1377.21C246.3,1373.14 245.65,1369.09 244.85,1365.08C244.84,1363.83 244.85,1362.58 244.86,1361.34C253.24,1360.75 261.61,1360.86 270,1360.87C286.67,1360.77 303.33,1360.94 320,1360.86C332.95,1361.11 345.83,1359.43 358.38,1356.28C364.13,1354.66 370.57,1352.11 374.09,1347.01C378.11,1341.3 378.46,1333.1 376.44,1326.59C374.78,1321.7 370.53,1316.41 365.01,1316.02C359.74,1315.43 354.31,1315.89 349,1315.83C318.67,1315.74 288.33,1315.8 258,1315.68C250.72,1315.75 243.45,1315.95 236.17,1315.63C235.73,1310.01 235.74,1304.41 235.99,1298.79C269.33,1299.03 302.67,1298.66 336,1298.95C351.35,1299.54 366.66,1298.5 382,1299.19C393.43,1299.03 405.01,1299.65 416.38,1298.44C413.72,1298.04 411.05,1297.71 408.38,1297.37L408.35,1296.68Z" style="fill:rgb(75,125,132);fill-rule:nonzero;"/>
    </g>
    <g transform="matrix(0.0913867,0,0,0.0693985,-0.479236,6.36779)">
        <path d="M246.7,1377.21C247.57,1377.77 248.45,1378.32 249.33,1378.86C255.23,1378.83 261.09,1378.08 267,1378.2C284.7,1378.13 301.95,1378.15 319.38,1381.81C327.31,1383.44 335.5,1386.17 342.24,1390.77C348.86,1395.34 352.68,1402.76 353.8,1410.62C355.51,1420.79 353.31,1429.77 353.41,1440.01C352.6,1452.38 352.18,1465.09 349.51,1477.22C346.79,1489.91 338.17,1500.51 327.36,1507.37C317.05,1513.59 305.07,1516.94 292.99,1516.36C287.46,1516.26 282.81,1514.6 277.29,1515.72C268.79,1507.66 262.86,1496.65 259.46,1485.53C257.3,1478.51 256.64,1471.38 256.09,1464.09C255.2,1453.17 254.04,1442.28 253.24,1431.34C251.18,1413.29 249.17,1395.22 246.7,1377.21Z" style="fill:rgb(116,195,165);fill-rule:nonzero;"/>
    </g>
</svg>
