{"asset":{"generator":"Khronos glTF Blender I/O v4.0.44","version":"2.0"},"scene":0,"scenes":[{"name":"Scene","nodes":[0]}],"nodes":[{"mesh":0,"name":"Hair_SimpleParted"}],"materials":[{"pbrMetallicRoughness":{"baseColorFactor":[0.7,0.5,0.3,1],"metallicFactor":0,"roughnessFactor":1}}],"meshes":[{"name":"Plane.002","primitives":[{"attributes":{"POSITION":0,"NORMAL":1,"TEXCOORD_0":2},"indices":3,"material":0}]}],"accessors":[{"bufferView":0,"componentType":5126,"count":757,"max":[0.089996337890625,1.8397216796875,0.07879638671875],"min":[-0.08542495965957642,1.660560131072998,-0.10815314203500748],"type":"VEC3"},{"bufferView":1,"componentType":5126,"count":757,"type":"VEC3"},{"bufferView":2,"componentType":5126,"count":757,"type":"VEC2"},{"bufferView":3,"componentType":5123,"count":3903,"type":"SCALAR"}],"bufferViews":[{"buffer":0,"byteLength":9084,"byteOffset":0,"target":34962},{"buffer":0,"byteLength":9084,"byteOffset":9084,"target":34962},{"buffer":0,"byteLength":6056,"byteOffset":18168,"target":34962},{"buffer":0,"byteLength":7806,"byteOffset":24224,"target":34963}],"buffers":[{"byteLength":32032,"uri":"Hair_SimpleParted.bin"}]}